<svg xmlns="http://www.w3.org/2000/svg" width="512" height="512" viewBox="0 0 21.59 21.59">
  <path fill="#FFF" d="M18.62 8.37l-.54-1.3s1.26-2.85 1.15-2.96l-1.68-1.64c-.11-.12-2.97 1.19-2.97 1.19l-1.32-.53S12.09.23 11.93.23H9.56c-.16 0-1.24 2.9-1.24 2.9L7 3.67S4.08 2.42 3.96 2.54L2.3 4.18c-.12.11 1.22 2.91 1.22 2.91l-.55 1.3S0 9.53 0 9.69V12c0 .17 2.97 1.22 2.97 1.22l.54 1.3s-1.26 2.85-1.15 2.96l1.67 1.64c.12.12 2.98-1.19 2.98-1.19l1.32.54s1.17 2.9 1.33 2.9h2.37c.16 0 1.24-2.91 1.24-2.91l1.33-.54s2.91 1.24 3.02 1.13l1.68-1.64c.12-.11-1.22-2.91-1.22-2.91l.55-1.3s2.96-1.14 2.96-1.3V9.6c0-.16-2.97-1.22-2.97-1.22zm-4.36 2.42a3.43 3.43 0 0 1-3.46 3.4c-1.91 0-3.47-1.53-3.47-3.4S8.9 7.41 10.8 7.41c1.91 0 3.47 1.52 3.47 3.38z"/>
</svg>